After a ship sunk off the coast of Albania, the world's superpowers begin a feverish search for its valuable lost cargo: the powerful ATAC system, which will give its bearer unlimited control over Polaris nuclear submarines. As Bond joins the search, he suspects the suave Kristatos of seizing the device. The competition between nations grows more deadly by the moment, but Bond finds an ally in the beautiful Melina Havelock, who blames Kristatos for the death of her parents. The non-stop action includes automobile chases, thrilling underwater battles, and even a breathtaking tour over razor-sharp coral reefs. But all of this is merely a prelude to 007's cliffhanging assault of a magnificent mountaintop fortress. 


Format : AVI
Format/Info : Audio Video Interleave
File size : 654 MiB
Duration : 2h 7mn
Overall bit rate : 716 Kbps
Writing application : MEncoder SVN-r29352(20090610-gcc4.3.3)
Writing library : MPlayer

Video
Format : avc1
Codec ID : avc1
Duration : 2h 7mn
Bit rate : 576 Kbps
Width : 480 pixels
Height : 360 pixels
Display aspect ratio : 4:3
Frame rate : 25.000 fps
Bits/(Pixel*Frame) : 0.133
Stream size : 526 MiB (80%)

Audio
ID : 1
Format : MPEG Audio
Format version : Version 1
Format profile : Layer 3
Mode : Joint stereo
Codec ID : 55
Codec ID/Hint : MP3
Duration : 2h 7mn
Bit rate mode : Constant
Bit rate : 128 Kbps
Channel(s) : 2 channels
Sampling rate : 44.1 KHz
Stream size : 117 MiB (18%)
Alignment : Aligned on interleaves
Interleave, duration : 26 ms (0.65 video frame)
Interleave, preload duration : 522 ms
Writing library : LAME3.98